<svg xmlns="http://www.w3.org/2000/svg" viewBox="0 0 414.14 30.98"><defs><style>.cls-1{fill:#fff;}</style></defs><title>Ресурс 1</title><g id="Слой_2" data-name="Слой 2"><g id="Layer_1" data-name="Layer 1"><path class="cls-1" d="M168.2,18.86l-.15,0h-.21l-.28,0-.33.09-.39.15-.47.23-1.22.71-1.52,1-1.2.78-1,.66-.46.28-.67.33-1.12.29-1.39-.15-.39-.18-.23-.17-.15-.17-.13-.19-.11-.3,0-.25v-.27l.05-.25.11-.32.26-.44.17-.22.22-.26.58-.6,2-1.86,1.66-1.45,1.27-1,1-.7.3-.19.24-.13.25-.09.51-.09.49.05.47.16.42.24.28.22.3.22.27.16.55.21.76.11.7,0,1-.24.77-.22,1.25-.25.6,0,.47.08.32.17.22.27.1.26,0,.35,0,.44-.1.54-.16.58-.09.49v.37l.05.34a1.57,1.57,0,0,0,.59.91l1,.39.89,0,.5-.1.71-.23,1-.41L181.07,18l1-.43.71-.23.52-.08h.42l.4.06.33.12.17.11.26.39,0,.16,0,.14-.06.16-.13.18-.14.12-.21.14L184,19l-1,.51-1.1.47-1.46.57-2.32.82L176,22l-1.06.27-1.55.28-.94.07-.93,0-.83-.19-.77-.33h0l-.49-.4-.34-.47-.2-.48-.06-.25-.06-.42-.05-.45,0-.17,0-.16-.06-.13v0l-.1-.13-.13-.09-.07,0Z"/><path class="cls-1" d="M328.76,18.5h.07l.31,0,.43,0,.56-.06.76-.06.61.08.46.19.32.28.11.16.08.18.1.31,0,.26,0,.22-.18.42-.17.29-.12.17-.26.2-.24.16-.37.2-.58.28-.84.37-1.79.71-1.11.3-1.28.24-1.28.08-.63,0-.59-.11-.27-.08-.26-.11-.39-.2-.24-.18-.23-.3-.15-.28-.19-.34-.09-.14-.09-.12h0l0,0-.14-.1-.17-.07-.21,0-.39,0-.49.1-.62.12-.84.17-.91.24-1,.3-.59.16-.73.15-2.11.25-1.38-.1-1.09-.27-.78-.42-.49-.54-.14-.3-.06-.33.09-.71.38-.76.67-.79a16.79,16.79,0,0,1,4-2.84,18.43,18.43,0,0,1,4.61-1.4l1.86-.16,2.18,0,1.82.25,1,.27.89.38.72.5.51.64.26.75v0h0v0l.14.48.13.37.14.27,0,0,.15.14Zm-12.94.07.2.32.26.2.27.12.33.09.62.06.88-.05.47-.08.49-.11,1-.29.83-.29.44-.2.34-.2.17-.14.2-.24.11-.23,0-.3-.11-.28-.21-.23L322,16.6l-.2-.09-.45-.11-.63-.07-1.21.06-1.3.3-.85.29-.62.24-.25.12-.15.09-.2.15-.18.19-.11.23-.05.26,0,.23Z"/><path class="cls-1" d="M358.82,16.3l1.6-.48,1,0,.76.41.85.72,1.27.92a5.7,5.7,0,0,0,2.24.74h2.5l2.48-.34L373.7,18l1.14-.1,1.44-.08,1.71,0,1.95,0,4.5.09,5.12.27a110,110,0,0,1,11.32,1.37l5.86,1.26,5.8,1.8h.07l.72.27.5.36.26.4.05.38-.15.32-.15.13-.2.11-.27.08-.32,0-.83-.08L406,22.77l-3.58-.71-3.88-.59L394.41,21l-4.34-.37-8.95-.44-3.31.05-3.37.27-3.29.41-3.11.45-2.81.4-1,.11h-.22l-.39,0-.36-.08-.66-.29-.72-.42-.88-.45-1.15-.42h0l-.43,0-.48.05-.53.12-.55.19-1.19.49-1.26.56-1.26.51-1.21.34-.57.08h-.53l-.49-.1-.44-.21L349,21l-.64-.27-.62-.09-.67.11-.78.32-.49.25-.47.27-.62.36-.62.38-.73.45-.74.45-.48.24-.51.19a4.37,4.37,0,0,1-1.9.16l-.82-.22-.67-.38-.47-.51-.24-.6,0-.67.36-.75,1.42-1.47,2.18-2.05,2.26-1.93.93-.71.39-.26.31-.18.64-.21.58,0,.53.24.47.46.25.38.25.36.34.26.44.11.52,0,.59-.14,1.35-.43.66-.16.6-.06.52.07.43.23.36.39.33.52.36.64.2.3.27.28.54.28h.57l.59-.19.62-.33Z"/><polygon class="cls-1" points="0.61 25.39 0.97 25.19 1.48 25.02 10.73 23.45 20.15 21.64 29.1 19.81 36.95 18.17 48.04 15.75 52.49 14.73 57.94 13.46 68.92 10.9 78.27 8.69 82.98 7.52 84.35 7.16 86.89 6.47 91.82 5.01 94.27 4.21 96.23 3.52 99.83 2.25 101.73 1.65 102.46 1.46 102.9 1.36 103.08 1.33 103.31 1.29 103.64 1.25 103.97 1.23 104.53 1.24 104.99 1.3 105.36 1.42 105.62 1.59 105.8 1.79 105.9 2.03 105.93 2.33 105.88 2.69 105.73 3.16 105.43 3.75 105.07 4.28 104.58 4.89 103.4 6.08 103.39 6.08 100.33 8.91 97.06 11.76 93.82 14.54 90.89 16.95 89.99 17.7 89.39 18.27 89.13 18.6 88.99 18.84 88.98 18.88 88.94 19.05 88.95 19.22 88.98 19.29 89.01 19.36 89.1 19.48 89.2 19.57 89.35 19.64 89.55 19.68 89.56 19.68 89.77 19.69 89.78 19.69 90.08 19.67 90.08 19.67 90.68 19.57 90.68 19.57 91.95 19.2 91.95 19.2 115.34 10.94 115.34 10.94 126.89 6.6 126.89 6.6 138.27 1.84 138.78 1.65 139.28 1.52 140.15 1.43 140.53 1.45 140.87 1.52 141.17 1.63 141.43 1.77 141.71 1.99 142.03 2.41 142.22 2.92 142.25 3.48 142.13 4.05 141.84 4.64 141.37 5.19 140.73 5.66 135.9 8.31 131.36 10.94 126.75 13.86 121.93 17.2 120.56 17.98 119.88 18.21 119.41 18.31 119.03 18.34 118.75 18.32 118.57 18.27 118.47 18.22 118.41 18.16 118.34 18.01 118.33 17.92 118.33 17.81 118.41 17.5 118.5 17.32 118.64 17.12 118.82 16.89 119.04 16.66 119.66 16.06 120.52 15.3 121.03 14.87 122.02 14.04 123.61 12.79 124.89 11.82 125.75 11.16 126.36 10.66 126.73 10.31 126.76 10.28 126.93 10.07 126.99 9.94 127.02 9.82 127.02 9.71 126.98 9.58 126.91 9.46 126.79 9.37 126.69 9.32 126.64 9.3 126.58 9.29 126.35 9.29 126.14 9.32 125.86 9.4 125.44 9.54 124.12 10.01 123.52 10.23 118.54 12.02 106.14 16.4 93.73 20.8 82.27 25.03 81.29 25.36 80.44 25.56 79.83 25.65 79.48 25.67 79.3 25.66 79.09 25.64 78.92 25.59 78.86 25.57 78.75 25.51 78.68 25.45 78.64 25.39 78.62 25.3 78.62 25.18 78.65 25.02 78.73 24.79 78.97 24.36 79.43 23.75 80.08 23.04 82.11 21.24 84.31 19.24 88.42 15.49 91.65 12.54 92.58 11.68 94.39 9.98 95.32 9.07 95.85 8.49 95.98 8.33 96.09 8.16 96.14 8.06 96.17 7.99 96.2 7.87 96.21 7.73 96.19 7.63 96.14 7.5 96.06 7.39 95.96 7.31 95.88 7.27 95.78 7.23 95.56 7.2 95.41 7.2 95.19 7.21 94.56 7.3 93.3 7.56 92.08 7.86 90.3 8.31 88.22 8.86 84.64 9.82 80.83 10.79 76.27 11.86 72.46 12.71 62.61 14.88 49.99 17.63 36.34 20.59 23.36 23.32 10.88 25.74 7.58 26.32 4.3 26.88 2.82 27.12 2.06 27.23 1.97 27.25 1.55 27.26 0.96 27.21 0.59 27.13 0.35 27.01 0.13 26.78 0.03 26.61 0 26.3 0.04 26.09 0.16 25.85 0.61 25.39"/><polygon class="cls-1" points="214.37 2.14 214.53 2.85 214.28 3.6 213.99 3.95 213.61 4.24 212.71 4.62 211.67 4.74 210.56 4.55 210.07 4.33 209.66 4.06 209.35 3.75 209.14 3.44 208.99 2.73 209.24 1.98 209.53 1.63 209.91 1.34 210.81 0.96 211.85 0.84 212.95 1.03 213.44 1.24 213.85 1.52 214.16 1.82 214.37 2.14"/><path class="cls-1" d="M300.79,19.82l1.14-.26h.92l.36.07.29.12.25.17.11.16,0,.18v.11l-.08.2-.18.23-.28.24h0l-.79.51-1,.47-1.12.42-1.25.36-2.75.53-2.94.25-2,0-1.28-.14-1.17-.29-1-.42-.83-.54-.59-.67-.31-.76v-.88l.36-1,.64-.9.89-.85,1.09-.77,1.24-.69,1.33-.59,1.35-.48,1.32-.35,1.23-.21,1.77.05.73.15.62.21.51.28.4.32.29.37.2.39.09.43,0,.45-.11.46-.22.47-.78.94-.75.58-.47.29-.17.11-.12.1-.11.15,0,.07v.07l.06.12.09.08.12,0,.14,0,.15,0H299l.91-.13Zm-7.82-3-1.18.61-.33.57.05.65.44.46.65.15h.67l.65-.08.65-.17.31-.09.32-.1h0l.32-.1.31-.11.3-.15.28-.17.53-.4.36-.55,0-.65-.44-.46-.66-.15-.67,0-1.28.26Z"/><polygon class="cls-1" points="279.07 15.13 279.4 15.13 280.35 15.15 281.26 15.23 281.66 15.32 281.99 15.45 282.24 15.62 282.39 15.84 282.45 16.14 282.4 16.52 282.16 16.98 281.74 17.33 281.17 17.58 280.63 17.71 279.85 17.83 278.09 17.93 276.24 18.01 275.39 18.1 274.62 18.25 273.96 18.49 273.43 18.85 272.44 19.73 270.83 20.97 269.73 21.76 268.99 22.27 268.78 22.41 264.57 25.2 262.34 26.75 260.21 28.62 259.27 29.68 258.83 30.15 258.4 30.54 257.95 30.82 257.5 30.98 257.01 30.97 256.47 30.78 256.14 30.57 255.86 30.27 255.47 29.54 255.39 28.75 255.42 28.59 255.45 28.52 255.53 28.35 255.66 28.16 255.84 27.93 256.31 27.44 256.67 27.11 257.37 26.51 259.07 25.23 262.55 22.84 264.71 21.38 265.95 20.51 266.42 20.17 266.74 19.9 266.75 19.89 267.21 19.43 267.47 19.15 267.54 19.06 267.68 18.87 267.76 18.73 267.81 18.61 267.83 18.49 267.81 18.37 267.75 18.27 267.65 18.2 267.55 18.17 267.25 18.14 266.97 18.16 266.94 18.17 266.39 18.24 264.84 18.44 262.94 18.46 262.25 18.31 261.77 18.09 261.47 17.81 261.37 17.63 261.31 17.31 261.36 16.95 261.58 16.52 261.87 16.16 262.24 15.84 263.14 15.39 264.12 15.3 264.15 15.3 264.17 15.3 264.18 15.3 264.22 15.3 267.62 15.15 270.14 15.05 270.96 14.99 271.61 14.91 272.01 14.81 272.3 14.68 272.65 14.45 273.38 13.86 274.25 13.1 274.94 12.55 276.01 11.68 278.94 9.27 283.84 5.26 286.82 2.86 287.93 1.99 288.35 1.67 288.66 1.45 289.92 0.61 290.53 0.3 290.99 0.12 291.56 0 292.11 0.02 292.64 0.2 292.77 0.28 292.89 0.36 293.12 0.58 293.47 1.14 293.62 1.75 293.61 2.02 293.59 2.14 293.54 2.26 293.37 2.58 293.11 2.94 292.43 3.69 291.7 4.38 291.38 4.64 291 4.92 289.71 5.87 287.82 7.24 286.55 8.19 285.3 9.17 283.1 10.91 280.93 12.5 279.17 13.74 278.75 14.03 278.18 14.41 278.16 14.42 278.15 14.44 278.07 14.56 278.03 14.69 278.05 14.83 278.13 14.94 278.35 15.05 278.64 15.1 279.07 15.13"/><path class="cls-1" d="M246.93,17.77a17.81,17.81,0,0,0,4.22-4,12.53,12.53,0,0,0,3.56-2.23l3.54-3.38,3.46-3.6A23.51,23.51,0,0,1,265,1.75L266.34,1l1.27-.56.88-.28L269.65,0l1,.13.18.06.14.08.09.08.06.1,0,.12,0,.15L271,.94l-.1.21-.14.23-.33.46-.38.45-.4.43-.31.3-.2.17-.81.68-1.27,1-1.58,1.24L262,8.87l-3.2,2.45-1.14.86-.63.47-1.2,1.13-.46.75-.3.85-4,2.22a82.19,82.19,0,0,0-7,5.17l-1.92,1.69-1.63,1.61L239,27.61,237.64,29l-.68.59-.67.49-.64.39-.62.27-.56.14-.5,0-.42-.05-.31-.12-.36-.37L232.7,30l0-.39.1-.43.21-.45.29-.46.71-.87a18.48,18.48,0,0,1,3.08-2.54Z"/><path class="cls-1" d="M194.93,17.26a100.7,100.7,0,0,1,10.32-9.94l.71-.38.89-.13.85.2.6.44.31.75h0l0,.87h0l-.27.79h0l-.5.59L195.24,21.69A53.68,53.68,0,0,1,188,27.28l-1.88.92-1.92.66-2,.49-2.09.36-2.07.23-2.11.07-1.93-.1-1.83-.24-.33-.08-.29-.11-.24-.16-.19-.18-.13-.22-.06-.24v-.27l.06-.24.14-.21.17-.15.29-.14.74-.15c6.6.14,10.68-1.23,12.85-2.31,2.38-1.19,5.38-3.69,9.73-7.93h0Z"/><path class="cls-1" d="M148.22,16.71l.13.48.13.37.14.27,0,0,.14.14.17.07H149l.32,0,.43,0,.56-.06.75-.06.62.08.46.19.32.28.1.16.09.18.09.31,0,.26,0,.22-.18.42-.17.29-.11.16-.26.21-.24.16-.37.2-.59.28-.84.37-1.78.71-1.12.3L145.8,23l-1.27.09-.63,0-.59-.11-.28-.08-.26-.11-.39-.2-.23-.18-.24-.3-.14-.28-.19-.34-.1-.14-.09-.12h0l0,0-.14-.1L141,21l-.2,0-.4,0-.48.1-.63.12-.83.17-.92.24-1,.3L136,22l-.73.15-2.1.25-1.39-.1-1.08-.27-.79-.42-.49-.54-.13-.3-.06-.33.09-.71.38-.76.66-.8a17.43,17.43,0,0,1,4-2.83A18.52,18.52,0,0,1,139,14l1.85-.16,2.18,0,1.83.25,1,.27.89.38.71.5.51.64.26.75v.07ZM136,18.14l.19.32.27.2.26.12.34.09.61.06.88-.05.48-.08.49-.11,1-.29.83-.29.44-.2.35-.21.17-.13.2-.24.1-.23,0-.3-.1-.28-.21-.23-.19-.12-.21-.09-.45-.11-.62-.07-1.21.06-1.3.3-.85.28-.63.25-.25.12-.15.09-.2.15-.17.19-.12.23,0,.26,0,.23Z"/><path class="cls-1" d="M226.58,19.38l.5,0,.5,0,.5-.06a38.22,38.22,0,0,0,6.29-1.93l1.11-.39.75-.21,1-.07.54.11.3.12.22.13.15.14.06.1v.1l-.05.11-.12.13-.23.16-.46.26-.53.25-1.11.49-2.22.89-2.79,1-3,.9-2.07.51-1.29.25-1.29.17-1.25,0-1.07-.14-.43-.16-.35-.22-.25-.28-.16-.35-.07-.31-.06-.32-.12-.29-.19-.22-.27-.12h-.29l-.59.2A31.27,31.27,0,0,1,211.55,23h0l-1.9.35-.89.07h-.82l-.74-.08-.62-.16-.58-.31-.33-.34-.17-.42,0-.3.1-.6.31-.72.53-.84,3.24-2.72a26.9,26.9,0,0,1,3.89-2.46l.67-.2.56-.06.45.06.35.15.26.22.11.18.11.32-.07.69-.44.67-.69.66-.54.56-.39.45-.11.15-.14.22-.13.3V19l0,.13.19.17.26,0,.32,0,.12,0,.26-.08.91-.36,1.06-.53,1.13-.66,3.11-1.52,1.8-.65,1.6-.27.37,0,.29.07.22.1.15.15.1.2.05.29,0,.4-.09.5h0l-.08.66v.56l.11.47.25.37.39.26Z"/></g></g></svg>